<?xml version="1.0" encoding="UTF-8"?> <!-- Generator: Adobe Illustrator 21.0.2, SVG Export Plug-In . SVG Version: 6.00 Build 0) --> <svg xmlns="http://www.w3.org/2000/svg" xmlns:xlink="http://www.w3.org/1999/xlink" id="Layer_1" x="0px" y="0px" viewBox="0 0 838 292" style="enable-background:new 0 0 838 292;" xml:space="preserve"> <style type="text/css"> .st0{fill:#DBDFE5;stroke:#484F5F;stroke-width:2;stroke-linejoin:round;stroke-miterlimit:10;} .st1{fill:#FFFFFF;} .st2{fill:#626B7B;} .st3{fill:none;stroke:#484F5F;stroke-width:2;stroke-linejoin:round;stroke-miterlimit:10;} .st4{fill:none;stroke:#FFFFFF;stroke-width:4;stroke-linecap:round;stroke-miterlimit:10;} .st5{fill:none;stroke:#484F5F;stroke-linejoin:round;stroke-miterlimit:10;} .st6{opacity:0.56;} .st7{fill:#C7C6C5;} .st8{opacity:0.6;fill:#FFFFFF;} .st9{fill:#FFFFFF;fill-opacity:0.5;stroke:#3B4358;stroke-width:2;stroke-miterlimit:10;} .st10{fill:#FFFFFF;stroke:#3B4358;stroke-width:2;stroke-linecap:round;stroke-miterlimit:10;} .st11{fill:#C6E8E8;} .st12{fill:#4CBFD0;} .st13{fill:#F26E60;} .st14{fill:#FCC016;} .st15{clip-path:url(#SVGID_2_);} .st16{fill:#4CBFD0;stroke:#3B4358;stroke-miterlimit:10;} .st17{fill:#66C9D2;stroke:#3B4358;stroke-miterlimit:10;} .st18{fill:#7ACED4;stroke:#3B4358;stroke-miterlimit:10;} .st19{fill:none;stroke:#3B4358;stroke-width:2;stroke-linecap:round;stroke-miterlimit:10;} .st20{fill:#D3D3D3;stroke:#3B4358;stroke-width:2;stroke-miterlimit:10;} .st21{fill:#4CBFD0;stroke:#3B4358;stroke-width:2;stroke-miterlimit:10;} .st22{fill:#F4F5F5;stroke:#3B4358;stroke-width:2;stroke-miterlimit:10;} .st23{fill:#F26E60;stroke:#3B4358;stroke-width:2;stroke-miterlimit:10;} .st24{fill:#FFFFFF;stroke:#3B4358;stroke-width:2;stroke-miterlimit:10;} .st25{fill:none;stroke:#4CBFD0;stroke-width:2;stroke-linecap:round;stroke-miterlimit:10;} .st26{fill:none;stroke:#3B4358;stroke-width:2;stroke-miterlimit:10;} .st27{fill:#67C9D1;stroke:#3B4358;stroke-width:2;stroke-miterlimit:10;} .st28{fill:#7FCFD4;stroke:#3B4358;stroke-width:2;stroke-miterlimit:10;} </style> <path class="st0" d="M621,277H209c-2.2,0-4-1.8-4-4V23c0-2.2,1.8-4,4-4h412c2.2,0,4,1.8,4,4v250C625,275.2,623.2,277,621,277z"></path> <path class="st1" d="M600.9,260H229.1c-1.7,0-3-1.3-3-3V39c0-1.7,1.3-3,3-3h371.9c1.7,0,3,1.3,3,3v218 C603.9,258.7,602.6,260,600.9,260z"></path> <path class="st2" d="M603.9,117H226.1V39c0-1.7,1.3-3,3-3h371.9c1.7,0,3,1.3,3,3V117z"></path> <path class="st3" d="M600.9,260H229.1c-1.7,0-3-1.3-3-3V39c0-1.7,1.3-3,3-3h371.9c1.7,0,3,1.3,3,3v218 C603.9,258.7,602.6,260,600.9,260z"></path> <line class="st4" x1="347" y1="66" x2="491" y2="66"></line> <line class="st3" x1="347" y1="137" x2="491" y2="137"></line> <line class="st5" x1="347" y1="217.5" x2="491" y2="217.5"></line> <line class="st5" x1="347" y1="226.5" x2="491" y2="226.5"></line> <line class="st5" x1="347" y1="235.5" x2="491" y2="235.5"></line> <line class="st5" x1="369" y1="244.5" x2="469" y2="244.5"></line> <line class="st4" x1="314" y1="84" x2="524" y2="84"></line> <g class="st6"> <path class="st7" d="M484,203H355c-3.3,0-6-2.7-6-6v-40c0-3.3,2.7-6,6-6h129c3.3,0,6,2.7,6,6v40C490,200.3,487.3,203,484,203z"></path> <path class="st8" d="M417.6,203H439c1.5,0,2.5-1.7,1.7-3l-11.1-17.7c-0.8-1.2-2.6-1.2-3.3,0.1l-10.3,17.7 C415.1,201.4,416.1,203,417.6,203z"></path> <circle class="st8" cx="383" cy="170" r="6"></circle> <path class="st8" d="M436.1,203h32.4c2.3,0,3.7-2.6,2.5-4.5l-16.7-26.8c-1.2-1.9-3.9-1.8-5.1,0.1l-15.6,26.8 C432.4,200.5,433.8,203,436.1,203z"></path> </g> <path class="st9" d="M247,157h-98c-1.1,0-2-0.9-2-2V58c0-1.1,0.9-2,2-2h98c1.1,0,2,0.9,2,2v97C249,156.1,248.1,157,247,157z"></path> <line class="st10" x1="158" y1="129" x2="240" y2="129"></line> <line class="st10" x1="158" y1="138" x2="229" y2="138"></line> <g> <g> <path class="st11" d="M229,83.9L216,84c-2.7,0-5-2.2-5-5v0c0-2.7,2.2-5,5-5L229,74c2.7,0,5,2.2,5,5v0 C234,81.7,231.8,83.9,229,83.9z"></path> <path class="st11" d="M225,111.9L212,112c-2.7,0-5-2.2-5-5v0c0-2.7,2.2-5,5-5L225,102c2.7,0,5,2.2,5,5v0 C230,109.7,227.8,111.9,225,111.9z"></path> <path class="st11" d="M177,102l-6,0c-2.7,0-5-2.2-5-5v0c0-2.7,2.2-5,5-5l6,0c2.7,0,5,2.2,5,5v0C182,99.7,179.8,102,177,102z"></path> <ellipse transform="matrix(1 -4.137707e-03 4.137707e-03 1 -0.4743 0.7623)" class="st12" cx="184" cy="115" rx="2" ry="2"></ellipse> <ellipse transform="matrix(1 -4.137707e-03 4.137707e-03 1 -0.3828 0.9897)" class="st13" cx="239" cy="93" rx="2" ry="2"></ellipse> <ellipse transform="matrix(1 -4.137707e-03 4.137707e-03 1 -0.2798 0.7661)" class="st14" cx="185" cy="68" rx="2" ry="2"></ellipse> </g> <g> <defs> <path id="SVGID_1_" d="M221,105h-36c-1.7,0-3-1.3-3-3V81c0-1.7,1.3-3,3-3h36c1.7,0,3,1.3,3,3v21C224,103.7,222.7,105,221,105z"></path> </defs> <clipPath id="SVGID_2_"> <use xlink:href="#SVGID_1_" style="overflow:visible;"></use> </clipPath> <g class="st15"> <path class="st16" d="M185.5,78.5h34c2.2,0,4,1.8,4,4v19c0,2.2-1.8,4-4,4h-34c-2.2,0-4-1.8-4-4v-19 C181.5,80.3,183.3,78.5,185.5,78.5z"></path> <path class="st17" d="M202.7,89.7l-20.1-11.2h-0.4c-0.4,0-0.7,0.3-0.7,0.7v25.6c0,0.4,0.3,0.7,0.7,0.7h0.4l20.1-14.7 C203.1,90.6,203.1,89.9,202.7,89.7z"></path> <path class="st17" d="M202.3,89.7l20.1-11.2h0.4c0.4,0,0.7,0.3,0.7,0.7v25.6c0,0.4-0.3,0.7-0.7,0.7h-0.4l-20.1-14.7 C201.9,90.6,201.9,89.9,202.3,89.7z"></path> <path class="st18" d="M181.8,80.5l20.3,13.2c0.2,0.1,0.5,0.1,0.7,0l20.3-13.2c0.2-0.1,0.3-0.4,0.3-0.6v-0.7 c0-0.4-0.3-0.7-0.7-0.7h-40.6c-0.4,0-0.7,0.3-0.7,0.7v0.7C181.5,80.1,181.6,80.4,181.8,80.5z"></path> </g> <use xlink:href="#SVGID_1_" style="overflow:visible;fill:none;stroke:#3B4358;stroke-width:2;stroke-miterlimit:10;"></use> </g> <line class="st19" x1="174" y1="83" x2="167" y2="83"></line> <line class="st19" x1="173" y1="91" x2="154" y2="91"></line> <line class="st19" x1="173" y1="99" x2="161" y2="99"></line> </g> <path class="st9" d="M657,241h-98c-1.1,0-2-0.9-2-2v-97c0-1.1,0.9-2,2-2h98c1.1,0,2,0.9,2,2v97C659,240.1,658.1,241,657,241z"></path> <line class="st10" x1="568" y1="213" x2="650" y2="213"></line> <line class="st10" x1="568" y1="222" x2="639" y2="222"></line> <g> <path class="st9" d="M122,257H24c-1.1,0-2-0.9-2-2v-97c0-1.1,0.9-2,2-2h98c1.1,0,2,0.9,2,2v97C124,256.1,123.1,257,122,257z"></path> <line class="st10" x1="33" y1="229" x2="115" y2="229"></line> <line class="st10" x1="33" y1="238" x2="104" y2="238"></line> <g> <path class="st11" d="M106,175.9L93,176c-2.7,0-5-2.2-5-5v0c0-2.7,2.2-5,5-5L106,166c2.7,0,5,2.2,5,5v0 C111,173.7,108.8,175.9,106,175.9z"></path> <path class="st11" d="M101,218.9L88,219c-2.7,0-5-2.2-5-5v0c0-2.7,2.2-5,5-5L101,209c2.7,0,5,2.2,5,5v0 C106,216.7,103.8,218.9,101,218.9z"></path> <path class="st11" d="M47,194l-6,0c-2.7,0-5-2.2-5-5v0c0-2.7,2.2-5,5-5l6,0c2.7,0,5,2.2,5,5v0C52,191.7,49.8,194,47,194z"></path> <ellipse transform="matrix(1 -4.137707e-03 4.137707e-03 1 -0.8974 0.2294)" class="st12" cx="55" cy="217" rx="2" ry="2"></ellipse> <ellipse transform="matrix(1 -4.137707e-03 4.137707e-03 1 -0.8018 0.4527)" class="st13" cx="109" cy="194" rx="2" ry="2"></ellipse> <ellipse transform="matrix(1 -4.137707e-03 4.137707e-03 1 -0.6823 0.2248)" class="st14" cx="54" cy="165" rx="2" ry="2"></ellipse> <path class="st20" d="M96,213H51c-1.1,0-2-0.9-2-2v-41c0-1.1,0.9-2,2-2h45c1.1,0,2,0.9,2,2v41C98,212.1,97.1,213,96,213z"></path> <path class="st21" d="M98,177H49v-7c0-1.1,0.9-2,2-2h45c1.1,0,2,0.9,2,2V177z"></path> <path class="st22" d="M87,188H61c-1.1,0-2-0.9-2-2v-2c0-1.1,0.9-2,2-2h26c1.1,0,2,0.9,2,2v2C89,187.1,88.1,188,87,188z"></path> <path class="st22" d="M87,198H61c-1.1,0-2-0.9-2-2v-2c0-1.1,0.9-2,2-2h26c1.1,0,2,0.9,2,2v2C89,197.1,88.1,198,87,198z"></path> <path class="st23" d="M87,208H61c-1.1,0-2-0.9-2-2v-2c0-1.1,0.9-2,2-2h26c1.1,0,2,0.9,2,2v2C89,207.1,88.1,208,87,208z"></path> </g> </g> <g> <path class="st11" d="M644,172h-13c-2.8,0-5-2.3-5-5l0,0c0-2.8,2.3-5,5-5h13c2.8,0,5,2.3,5,5l0,0C649,169.8,646.8,172,644,172z"></path> <path class="st11" d="M637,196h-13c-2.8,0-5-2.3-5-5l0,0c0-2.8,2.3-5,5-5h13c2.8,0,5,2.3,5,5l0,0C642,193.8,639.8,196,637,196z"></path> <path class="st11" d="M586,187h-6c-2.8,0-5-2.3-5-5l0,0c0-2.8,2.3-5,5-5h6c2.8,0,5,2.3,5,5l0,0C591,184.8,588.8,187,586,187z"></path> <circle class="st12" cx="586" cy="196" r="2"></circle> <circle class="st13" cx="645" cy="184" r="2"></circle> <circle class="st14" cx="620" cy="151" r="2"></circle> <path class="st24" d="M626,195h-28c-1.1,0-2-0.9-2-2v-35c0-1.1,0.9-2,2-2h28c1.1,0,2,0.9,2,2v35C628,194.1,627.1,195,626,195z"></path> <path class="st21" d="M628,163h-32v-5c0-1.1,0.9-2,2-2h28c1.1,0,2,0.9,2,2V163z"></path> <line class="st25" x1="601" y1="169" x2="603" y2="169"></line> <line class="st25" x1="607" y1="169" x2="622" y2="169"></line> <line class="st25" x1="601" y1="174" x2="603" y2="174"></line> <line class="st25" x1="607" y1="174" x2="622" y2="174"></line> <line class="st25" x1="601" y1="179" x2="603" y2="179"></line> <line class="st25" x1="607" y1="179" x2="622" y2="179"></line> <line class="st25" x1="601" y1="184" x2="603" y2="184"></line> <line class="st25" x1="607" y1="184" x2="622" y2="184"></line> <g> <polygon class="st1" points="621.3,193 628.5,193 625.3,200.7 "></polygon> <polygon class="st12" points="623.3,196 626.5,196 625.5,199.4 "></polygon> <path class="st12" d="M629,193h-3.5H622v-18c0-1.1,0.9-2,2-2h3c1.1,0,2,0.9,2,2V193z"></path> <path class="st26" d="M629,194l-2.6,5.2c-0.4,0.7-1.4,0.7-1.8,0L622,194v-19c0-1.1,0.9-2,2-2h3c1.1,0,2,0.9,2,2V194z"></path> <line class="st26" x1="622" y1="193" x2="629" y2="193"></line> <line class="st19" x1="625" y1="187" x2="625" y2="190"></line> <line class="st19" x1="625" y1="177" x2="625" y2="184"></line> <path class="st23" d="M628,170h-5c-0.6,0-1-0.4-1-1v-2c0-0.6,0.4-1,1-1h5c0.6,0,1,0.4,1,1v2C629,169.6,628.6,170,628,170z"></path> </g> </g> <g> <path class="st9" d="M820,155h-98c-1.1,0-2-0.9-2-2V56c0-1.1,0.9-2,2-2h98c1.1,0,2,0.9,2,2v97C822,154.1,821.1,155,820,155z"></path> <line class="st10" x1="731" y1="127" x2="813" y2="127"></line> <line class="st10" x1="731" y1="136" x2="802" y2="136"></line> <g> <path class="st11" d="M805,83.9L792,84c-2.7,0-5-2.2-5-5v0c0-2.7,2.2-5,5-5L805,74c2.7,0,5,2.2,5,5v0 C810,81.7,807.8,83.9,805,83.9z"></path> <path class="st11" d="M799,107.9L786,108c-2.7,0-5-2.2-5-5v0c0-2.7,2.2-5,5-5L799,98c2.7,0,5,2.2,5,5v0 C804,105.7,801.8,107.9,799,107.9z"></path> <path class="st11" d="M748,99l-6,0c-2.7,0-5-2.2-5-5v0c0-2.7,2.2-5,5-5l6,0c2.7,0,5,2.2,5,5v0C753,96.7,750.8,99,748,99z"></path> <ellipse transform="matrix(1 -4.137707e-03 4.137707e-03 1 -0.4405 3.0959)" class="st12" cx="748" cy="108" rx="2" ry="2"></ellipse> <ellipse transform="matrix(1 -4.137707e-03 4.137707e-03 1 -0.3903 3.34)" class="st13" cx="807" cy="96" rx="2" ry="2"></ellipse> <ellipse transform="matrix(1 -4.137707e-03 4.137707e-03 1 -0.254 3.2321)" class="st14" cx="781" cy="63" rx="2" ry="2"></ellipse> </g> <g> <circle class="st27" cx="773" cy="77" r="8"></circle> <path class="st28" d="M781,108h-17c-5,0-9-4-9-9v0c0-5,4-9,9-9h17c5,0,9,4,9,9v0C790,104,786,108,781,108z"></path> </g> </g> </svg> 